<svg xmlns="http://www.w3.org/2000/svg" viewBox="447 149 184 41" role="img" aria-label="CICANDA">
  <g fill-rule="evenodd">
    <path fill="#1E3A8A" d="M 468.390625 189.894531 C 470.027344 189.894531 471.578125 189.742188 473.042969 189.453125 L 473.042969 177.984375 C 471.890625 178.5625 470.523438 178.914062 468.984375 178.914062 C 464.171875 178.914062 460.277344 175.238281 460.277344 169.667969 C 460.277344 164.042969 464.117188 160.308594 469.039062 160.308594 C 470.480469 160.308594 471.847656 160.589844 473.042969 161.152344 L 473.042969 149.878906 C 471.539062 149.589844 469.992188 149.4375 468.445312 149.4375 C 456.816406 149.4375 447.621094 157.390625 447.621094 169.667969 C 447.621094 181.671875 456.707031 189.894531 468.390625 189.894531"/>
    <path fill="#1E3A8A" d="M 485.78125 189.523438 L 485.78125 186.59375 C 485.019531 186.039062 484.300781 185.433594 483.632812 184.777344 C 479.820312 181.066406 477.503906 175.839844 477.503906 169.667969 C 477.503906 163.402344 479.8125 158.207031 483.597656 154.53125 C 484.277344 153.867188 485.007812 153.253906 485.78125 152.695312 L 485.78125 149.679688 L 473.9375 149.679688 L 473.9375 189.523438 Z"/>
    <path fill="#1E3A8A" d="M 503.734375 178.023438 C 502.601562 178.582031 501.261719 178.914062 499.761719 178.914062 C 494.949219 178.914062 491.054688 175.238281 491.054688 169.667969 C 491.054688 164.042969 494.894531 160.308594 499.816406 160.308594 C 502.574219 160.308594 505.0625 161.335938 506.578125 163.390625 L 512.207031 156.898438 L 513.289062 154.203125 C 509.835938 151.234375 504.527344 149.4375 499.222656 149.4375 C 487.59375 149.4375 478.398438 157.390625 478.398438 169.667969 C 478.398438 181.605469 487.386719 189.800781 498.972656 189.890625 L 499.394531 188.839844 Z"/>
    <path fill="#3B82F6" d="M 516.34375 149.679688 L 500.378906 189.480469 L 513.363281 189.480469 L 515.671875 183.015625 L 529.160156 183.015625 L 531.523438 189.480469 L 533.375 189.480469 L 533.375 160.441406 L 529.105469 149.679688 Z M 522.527344 162.5 L 526.238281 173.574219 L 518.707031 173.574219 Z"/>
    <path fill="#3B82F6" d="M 545.835938 189.480469 L 545.386719 168.34375 L 545.554688 168.34375 L 558.148438 189.480469 L 559.269531 189.480469 L 559.269531 171.21875 L 546.734375 149.679688 L 534.144531 149.679688 L 534.144531 189.480469 Z"/>
    <path fill="#3B82F6" d="M 576.199219 189.480469 C 578.753906 189.480469 581.285156 189.183594 583.679688 188.566406 L 595.855469 158.207031 C 591.707031 151.855469 583.691406 149.679688 575.300781 149.679688 L 560.574219 149.679688 L 560.574219 189.480469 Z M 572.378906 160.082031 L 575.917969 160.082031 C 581.820312 160.082031 586.320312 163.003906 586.320312 169.300781 C 586.320312 176.328125 581.933594 178.96875 575.527344 178.96875 L 572.378906 178.96875 Z"/>
    <path fill="#1E3A8A" d="M 600.277344 149.679688 L 584.3125 189.480469 L 597.296875 189.480469 L 599.601562 183.015625 L 613.09375 183.015625 L 615.296875 189.046875 L 622.015625 172.296875 L 613.039062 149.679688 Z M 606.460938 162.5 L 610.171875 173.574219 L 602.636719 173.574219 Z"/>
    <path fill="#F26B2A" d="M 628.523438 189.460938 L 622.429688 174.105469 L 616.261719 189.480469 L 628.515625 189.480469 Z"/>
  </g>
</svg>
